<?xml version="1.0" encoding="utf-8"?>
<!-- Designed by Vexels.com - 2016 All Rights Reserved - https://vexels.com/terms-and-conditions/  -->

<svg version="1.0" id="Capa_1" xmlns="http://www.w3.org/2000/svg" xmlns:xlink="http://www.w3.org/1999/xlink" x="0px" y="0px"
	 width="1200px" height="1200px" viewBox="0 0 1200 1200" enable-background="new 0 0 1200 1200" xml:space="preserve">
<g>
	<g>
		<path fill="#E3935D" d="M631.583,357.235l35.354,5.576c0,0,31.404-18.883,59.247-42.859c32.342-27.849,46.59-51.083,50.727-57.328
			c4.142-6.245-0.1-16.016,7.182-18.108c7.26-2.103,35.328-2.186,44.701-0.136c9.357,2.05,34.302-1.13,44.7-1.161
			c10.393-0.032,38.456-2.177,37.43,3.012c-1.02,5.2-19.708,15.651-30.091,20.88c-10.383,5.22-29.083,8.39-39.476,8.432
			c-10.398,0.021-29.025,13.956-42.53,32.347c-17.607,23.956-79.772,102.123-97.425,107.363
			c-17.659,5.242-66.534,3.819-66.534,3.819L631.583,357.235z"/>
		<path fill="#C67646" d="M798.827,307.89c13.505-18.391,32.132-32.325,42.53-32.347c10.393-0.042,29.092-3.212,39.476-8.432
			c10.382-5.23,29.071-15.681,30.091-20.88c0.277-1.339-1.406-2.186-4.199-2.72c-4.944,4.3-12.564,10.514-20.191,15.232
			c-12.852,7.951-31.211,7.354-45.286,8.568c-14.081,1.223-29.375,10.398-34.889,18.977c-5.497,8.568-98.539,113.222-106.49,118.128
			c-7.956,4.886-63.045,3.661-64.88,3.661c0,0-0.225,0.659-0.622,1.726l0.501,9.269c0,0,48.875,1.423,66.534-3.819
			C719.055,410.013,781.22,331.846,798.827,307.89z"/>
		<path fill="#E3935D" d="M321.198,456.691c0,0-43.152,34.481-51.987,49.922c-8.836,15.43-14.787,76.377-14.29,112.008
			c0.235,17.146,2.145,36.719,1.176,62.046c-0.523,13.871-0.387,27.084,4.158,33.015c8.698,11.382,24.83,19.584,35.856,15.932
			c11.037-3.671,38.382-12.553,39.172-23.684c0.518-7.343-3.248-14.886-3.248-14.886s1.894-6.1,1.569-10.336
			c-0.989-12.459-22.141-25.242-26.231-26.216c-4.075-1.004-1.078-106.694,10.403-120.126
			c11.476-13.432,42.185-26.447,42.185-26.447S324.702,481.4,321.198,456.691z"/>
		<path fill="#C67646" d="M332.648,691.242c0,0,1.428-3.661,1.224-7.354c-0.209-3.661-1.627-7.742-1.627-7.742
			s-1.762,13.087-2.981,14.584c-4.723,5.837-12.14-5.534-12.14-5.534s10.477,20.608,10.859,23.976
			c0.371,3.38-3.745,4.865-7.49,5.619c-3.745,0.753-17.094-20.327-18.648-19.459c-1.553,0.858,12.648,17.952,13.025,20.588
			c0.381,2.626-2.616,3.745-6.742,5.242c-2.914,1.067-21.085-17.188-22.408-16.446c-1.303,0.733,17.281,16.518,17.544,18.318
			c0.371,2.626-2.25,1.495-6.377,2.626c-3.19,0.878-21.926-13.568-24.212-13.191c-2.291,0.387,20.938,15.178,18.6,16.925
			c-0.659,0.502-1.47,0.827-2.322,1.036c2.527,0.147,4.948-0.084,7.161-0.816c11.037-3.671,36.688-11.874,39.705-22.628
			C337.643,700.51,332.648,691.242,332.648,691.242z"/>
		<path fill="#C67646" d="M359.628,508.035l-11.068-6.308c0,0-40.396,18.36-43.247,31.834
			c-2.856,13.453-11.429,98.325-9.389,108.932c2.04,10.618,4.901,15.096,15.504,19.176c5.01,1.925,10.288,3.943,14.907,5.931
			c-6.837-7.072-16.357-12.481-18.961-13.109c-4.075-1.004-1.078-106.694,10.403-120.126
			C328.563,521.739,356.306,509.488,359.628,508.035z"/>
		<path fill="#B1AEAB" d="M208.614,852.544c0,0-25.426,50.402-23.161,94.444c2.27,44.032,23.161,78.544,32.237,84.893
			c9.085,6.361,19.525,8.17,19.525,8.17s-4.493,4.592-10.9,4.101c-13.626-1.087-33.597-19.531-44.957-55.852
			c-11.345-36.321-5.44-61.303-2.709-79.914c2.709-18.6,20.425-55.403,20.425-55.403S204.069,848.454,208.614,852.544z"/>
		<path fill="#B1AEAB" d="M1024.366,822.415c0,0,2.192,6.863,0,14.834c-2.192,7.951-32.09,43.069-76.267,62.537
			c-44.163,19.478-89.706,24.406-89.706,24.406s-3.99-2.636-3.504-5.293c0.497-2.647,70.989-13.621,103.09-33.1
			c32.095-19.478,50.204-36.227,56.778-44.994C1021.343,832.019,1024.366,822.415,1024.366,822.415z"/>
		<path fill="#EEE5E2" d="M908.942,834.833c0,0,37.546-2.05,60.507-10.148c29.872-10.534,47.332-12.229,54.064-4.518
			c6.726,7.699-15.608,43.142-68.176,69.525C905.014,914.934,854.889,918.9,854.889,918.9s-14.259-5.89-19.035-26.436
			c-3.535-15.201-1.595-22.628-1.595-22.628s30.061,2.05,48.111-6.811C900.422,854.155,908.942,834.833,908.942,834.833z"/>
		<path fill="#EEE5E2" d="M258.253,936.883c0,0-16.78,19.436-11.759,47.002c7.6,41.792-3.3,56.124-13.013,56.47
			c-16.894,0.585-53.143-40.401-51.412-97.74c1.648-54.89,24.495-89.276,24.495-89.276s15.932-6.788,30.986-3.598
			c14.441,3.055,22.706,10.168,22.706,10.168s-12.773,21.771-13.526,41.374C245.966,920.898,258.253,936.883,258.253,936.883z"/>
		<path fill="#463535" d="M646.297,629.532c0,0,146.866,6.465,179.206,19.73c32.336,13.264,90.464,186.157,90.464,186.157
			s0.042,20.734-28.163,34.71c-26.67,13.223-54.152,6.894-54.152,6.894s-45.297-126.927-60.284-143.716
			c-14.975-16.78-127.031,0.167-164.832,14.991c0,0-106.438,137.952-121.606,156.898c-15.164,18.955-46.935,31.854-84.433,34.03
			c-37.493,2.166-147.284,1.727-147.284,1.727s-14.191-28.068-13.077-47.757c1.501-26.477,17.099-38.664,17.099-38.664
			s144.966,7.804,160.418-16.446c15.477-24.249,40.668-83.46,40.229-86.557c-0.435-3.085-2.313-31.174,3.143-51.909
			c5.461-20.713,7.967-25.264,7.967-25.264s78.648,14.04,115.711-5.931C623.779,648.476,646.297,629.532,646.297,629.532z"/>
		<path fill="#EDB528" d="M450.619,365.489c0,0-39.674,3.766-62.599,20.096c-22.921,16.341-74.688,73.239-74.688,73.239
			s8.087,24.092,19.332,37.462c11.251,13.369,26.823,17.69,26.823,17.69l53.562-24.427c0,0,26.509,61.7,32.618,111.318
			c6.104,49.617,0.116,71.084,12.674,80.531c12.559,9.435,84.878,20.629,136.614-3.536c51.735-24.166,68.253-46.155,67.349-59.106
			c-0.905-12.962-11.325-60.11-27.127-98.995c-14.143-34.836-40.756-83.042-40.756-83.042l72.067-1.684
			c0,0,3.881-23.119,1.809-44.324c-2.081-21.215-5.602-30.84-5.602-30.84s-50.067-7.323-64.201-8.128
			c-14.133-0.806-26.964-10.188-56.48-7.637C491.214,348.521,450.619,365.489,450.619,365.489z"/>
		<polygon fill="#EBDCCE" points="993.066,252.121 695.721,252.958 695.637,221.773 992.971,220.936 		"/>
		<path fill="#E3935D" d="M527.065,368.701c-3.678-12.072-7.878-20.807-7.878-20.807l-3.243-6.225c0,0-41.615,6.434-63.642,3.379
			l4.583,11.612c0,0,44.068,19.605,52.95,26.634c8.013,6.361,20.263,19.95,22.559,22.524
			C530.998,398.693,530.167,378.88,527.065,368.701z"/>
		<path fill="#C67646" d="M529.408,379.005c0,0-3.473-17.805-8.756-28.935l-2.531-7.72c0,0-13.898,4.687-29.71,5.137
			c-21.42,0.617-34.889,0.617-34.889,0.617l2.134,5.618c0,0,24.496,8.798,46.799,7.867c7.187-0.314,12.47-3.881,15.555-6.706
			c1.067,5.67,2.627,11.874,4.677,14.949C526.966,376.265,529.408,379.005,529.408,379.005z"/>
		<path fill="#EDB528" d="M533.394,407.774c-2.616,0.628-3.667-28.82-7.344-40.904c-3.676-12.082-10.105-25.201-10.105-25.201
			l11.58,3.86c0,0,12.292,7.784,20.865,20.013c5.529,7.898,12.794,28.497,12.548,30.609c-0.246,2.103-13.161-11.936-17.753-11.319
			C538.598,385.439,535.998,407.157,533.394,407.774z"/>
		<path fill="#E3935D" d="M539.315,192.816c0,0,2.95,48.038,9.19,51.156c6.245,3.117,29.898,7.511,31.462,18.433
			c1.569,10.91-25.195,18.986-25.195,18.986s3.934,42.107-21.011,55.392c-24.946,13.265-75.457,13.904-102.756,6.131
			c-27.294-7.773-56.334-34.878-64.149-62.16c-7.82-27.294-14.871-70.949,10.048-113.076
			c24.923-42.127,109.723-38.445,134.882-21.927C541.434,165.23,539.315,192.816,539.315,192.816z"/>
		<path fill="#C67646" d="M579.967,262.405c-0.261-1.894-1.214-3.578-2.604-5.105c-0.1,1.036,2.149,11.696-18.271,19.636
			c-13.223,5.147-21.095,1.141-21.095,1.141s3.52,6.046,16.774,3.315C554.772,281.391,581.536,273.315,579.967,262.405z"/>
		<path fill="#C67646" d="M444.034,262.363c0,0-2.349-11.298-13.265-14.018c-10.916-2.72-15.593,3.525-15.974,8.201
			c-0.392,4.666,1.172,8.578,1.172,8.578s-0.005-10.534,5.057-12.868c5.064-2.343,12.878,6.998,12.878,6.998s-3.51,0-6.24,0.397
			c-2.731,0.398-7.8,5.085-7.8,5.085s10.917-1.183,15.211,1.935c4.288,3.117,1.563,12.47,1.563,12.47
			S446.769,274.068,444.034,262.363z"/>
		<g>
			<g>
				<path fill="#CC7E4C" d="M505.342,238.825c0.722,10.681,4.039,18.694,14.248,18.433c10.21-0.23,12.376-9.509,11.665-20.18
					c-0.717-10.671-7.088-18.914-14.248-18.433C509.856,219.137,504.625,228.176,505.342,238.825z"/>
				<g>
					<path fill="#E6D3C8" d="M506.9,237.005c0.655,9.729,3.605,17.063,12.596,16.843c8.987-0.199,10.879-8.652,10.226-18.371
						c-0.653-9.729-6.282-17.261-12.59-16.843C510.834,219.064,506.258,227.287,506.9,237.005z"/>
					<g>
						<path fill="#23282B" d="M509.956,241.974c0.591,5.754,5.518,9.949,10.999,9.373c5.477-0.566,9.228-5.848,8.631-11.603
							c-0.581-5.732-5.288-9.76-10.776-9.185C513.334,231.115,509.375,236.241,509.956,241.974z"/>
						<path fill="#1B1419" d="M516.384,240.415c0.198,1.977,1.956,3.4,3.928,3.202c1.956-0.21,3.389-1.977,3.18-3.944
							c-0.194-1.956-1.952-3.389-3.919-3.19C517.607,236.691,516.185,238.438,516.384,240.415z"/>
					</g>
				</g>
				<path fill="#FFFFFF" d="M511.959,239.149c0.125,1.287,1.287,2.239,2.584,2.092c1.286-0.136,2.233-1.287,2.103-2.584
					c-0.141-1.297-1.297-2.25-2.589-2.114C512.77,236.68,511.823,237.841,511.959,239.149z"/>
				<path fill="#682D1F" d="M530.517,238.05c0,0-4.603-18.369-13.61-18.286c-9.007,0.094-12.773,11.801-12.773,11.801
					s0.916-13.077,10.206-14.887C523.629,214.88,529.157,224.786,530.517,238.05z"/>
			</g>
			<path fill="#682D1F" d="M495.482,221.261c0,0,3.903-9.447,13.987-11.403c10.074-1.967,23.422,8.442,23.422,8.442
				s-5.811-12.209-17.251-13.004C497.093,204.01,495.482,221.261,495.482,221.261z"/>
		</g>
		<path fill="#EDB528" d="M447.402,365.845c0,0,3.997-17.02,9.635-14.833c5.65,2.186,34.403,10.419,51.872,24.636
			c17.481,14.206,32.744,34.888,30.301,36.708c-2.448,1.852-17.072-20.441-22.768-20.765c-5.697-0.346-18.218,30.285-19.846,26.351
			c-1.632-3.944-12.051-18.527-18.485-30.128C471.662,376.223,447.402,365.845,447.402,365.845z"/>
		<path fill="#B69035" d="M577.938,684.391c-8.265,1.443-18.779,3.034-30.673,4.205c-28.967,2.856-65.283-2.448-73.846-12.647
			c-8.568-10.2-6.124-53.039-8.165-73.438c-2.04-20.41-27.335-84.871-31.828-97.52c-4.487-12.659-3.259-38.362-3.259-38.362
			s-13.469,9.395-15.1,11.842c-1.423,2.123-55.078,23.726-68.961,29.292c7.302,4.52,13.38,6.214,13.38,6.214l53.562-24.427
			c0,0,26.509,61.7,32.618,111.318c6.104,49.617,0.116,71.084,12.674,80.531C469.57,689.84,528.582,699.674,577.938,684.391z"/>
		<path fill="#B69035" d="M591.882,424.523c0,0-0.042,7.124,0.581,9.571c0.602,2.458,1.957,2.626,1.957,2.626l72.067-1.684
			l1.553-14.708L591.882,424.523z"/>
		<g>
			<polygon fill="#CBC0B7" points="1012.796,220.528 715.456,221.376 715.367,190.169 1012.712,189.333 			"/>
			<rect x="715.592" y="220.476" fill="#D9C2AC" width="297.251" height="1.245"/>
		</g>
		<g>
			<polygon fill="#EBDCCE" points="985.79,174.97 688.911,191.362 687.179,160.219 984.07,143.816 			"/>
			<polygon fill="#D9C2AC" points="985.895,176.141 689.046,191.697 688.984,190.463 985.832,174.917 			"/>
		</g>
		<path fill="#682D1F" d="M515.945,144.977c-28.597-11.947-76.938-11.906-118.516,5.795c-41.568,17.7-47.813,59.137-45.81,92.676
			c2.683,44.9,20.327,70.603,45.062,82.591c9.049,4.362,4.776,8.285,3.29,10.743c-3.264,5.398-10.613,3.558-10.613,3.558
			s3.682,6.737,10.613,6.527c12.245-0.345,16.529-7.343,16.529-7.343s2.343,1.642,1.632,7.156c-0.392,2.981-3.462,6.632-3.462,6.632
			s14.813-6.015,19.997-16.968c9.776-20.639,4.451-43.686-0.749-47.316c-5.199-3.64-20.797-1.025-26.524-20.253
			c-4.63-15.524,6.737-30.159,22.853-29.134c16.11,1.025,22.884,19.207,22.884,19.207s3.117-0.513,5.712-3.63
			c2.605-3.128,0.659-8.286,3.253-14.531c2.589-6.235,8.688-9.394,10.765-15.116c2.076-5.712-5.1-10.963-2.506-23.444
			c2.589-12.469,15.985-23.872,43.54-23.37c11.967,0.22,27.031-0.021,27.031-0.021S532.285,151.787,515.945,144.977z"/>
		<g>
			<path fill="#EDB528" d="M355.291,260.585c0,0-2.657,0.397-5.921-3.264c-3.259-3.672-25.871-81.367,1.229-106.495
				c27.1-25.128,95.543-56.334,118.233-52.003c22.68,4.351,34.731,2.05,51.825,27.753c14.227,21.383,22.424,42.2,21.927,46.228
				c-0.502,4.028-48.399,29.355-82.22,46.971C420.245,240.677,355.291,260.585,355.291,260.585z"/>
			<path fill="#CFA333" d="M482.573,207.608c0,0,27.843-17.25,41.098-30.735c8.243-8.401,13.474-20.713,13.474-20.713
				s52.892-5.157,57.406,2.04c4.518,7.187-7.486,26.98-35.255,34.659C538.039,198.737,482.573,207.608,482.573,207.608z"/>
		</g>
		<path fill="#8B4029" d="M375.8,256.002c0,0-1.679,12.92-0.434,19.438c1.239,6.517,5.278,17.68,5.278,17.68
			s-9.007-11.779-9.007-20.169C371.637,264.58,375.8,256.002,375.8,256.002z"/>
		<path fill="#8B4029" d="M389.782,256.546c0,0,0.973,10.106,3.426,14.677c2.449,4.583,8.442,11.947,8.442,11.947
			s-10.78-6.602-12.433-12.878C387.57,264.016,389.782,256.546,389.782,256.546z"/>
		<path fill="#8B4029" d="M391.22,288.349c0,0,4.284,9.195,8.118,12.699c3.829,3.494,11.931,8.463,11.931,8.463
			s-12.371-2.646-16.006-8.023C391.618,296.111,391.22,288.349,391.22,288.349z"/>
		<path fill="#8B4029" d="M442.893,229.431c0,0,7.339,7.95,8.562,11.015c1.219,3.054,1.836,6.109,1.836,6.109
			s0.916-7.961-0.309-12.846c-1.218-4.906-5.204-6.727-5.204-6.727L442.893,229.431z"/>
		<g>
			<path fill="#977D75" d="M541.795,412.628c0,0,3.337,2.26,4.032,4.666c0.691,2.406-0.722,6.004-0.722,6.004
				s-0.842,0.241-1.203,0.356c-1.914,0.555-4.168-1.401-5.031-4.342c-0.853-2.949,0-5.795,1.925-6.349
				C541.151,412.858,541.795,412.628,541.795,412.628z"/>
			<path fill="#C1A499" d="M546.957,416.938c0.858,2.96,0,5.806-1.92,6.36c-1.914,0.555-4.174-1.381-5.031-4.342
				c-0.853-2.939,0.01-5.795,1.929-6.349C543.849,412.053,546.104,413.998,546.957,416.938z"/>
			<path fill="#977D75" d="M544.388,416.206c0.152,0.523-0.01,1.005-0.361,1.119c-0.356,0.094-0.758-0.23-0.904-0.753
				c-0.158-0.523,0.005-1.025,0.361-1.119C543.834,415.348,544.242,415.683,544.388,416.206z"/>
			<path fill="#977D75" d="M544.012,418.989c0.151,0.523-0.021,1.025-0.372,1.119c-0.345,0.104-0.758-0.23-0.909-0.754
				c-0.141-0.512,0.015-1.014,0.365-1.118C543.452,418.141,543.86,418.476,544.012,418.989z"/>
		</g>
		<path fill="#B69035" d="M445.666,366.661c0,0,20.405,8.578,33.047,28.978c12.658,20.399,15.922,27.743,17.549,25.703
			c1.637-2.04,15.916-19.991,19.589-20.808c3.672-0.806,16.628,7.856,16.628,7.856s-9.274-9.885-12.956-13.568
			c-3.672-3.682-4.08-5.304-9.384-0.826c-5.309,4.509-8.981,9.802-10.2,13.474c-1.223,3.671-1.223,11.015-4.074,9.791
			c-2.861-1.223-11.429-21.215-18.779-30.599C469.737,377.279,454.233,368.303,445.666,366.661z"/>
		<path fill="#B69035" d="M539.284,427.19c0,0-5.89-16.341-4.975-24.616c0.921-8.263,7.35-19.897,9.792-19.594
			c2.453,0.314,17.752,12.554,17.752,12.554s-6.428-17.449-13.463-27.231c-7.045-9.791-13.16-15.305-13.16-15.305
			s16.523,13.767,22.339,25.086c5.811,11.329,6.732,21.425,6.732,21.425s-16.22-5.199-19.583-5.199
			c-3.373,0-7.343,8.871-7.343,11.936C537.375,409.302,539.284,427.19,539.284,427.19z"/>
		<path fill="#602721" d="M519.988,306.593c0,0,13.621-9.29,16.78-6.151c3.154,3.148-1.265,9.446-5.34,10.858
			C527.352,312.723,511.901,313.435,519.988,306.593z"/>
	</g>
	<path opacity="0.2" fill="#0C050D" d="M215.592,1081.802c0,0,68.558-11.549,187.785-6.664
		c119.222,4.875,307.005-11.215,351.717-4.279c44.706,6.926,128.16,14.416,59.608,19.71c-68.558,5.271-447.103,3.525-548.435,10.806
		C227.471,1104.168,164.928,1077.921,215.592,1081.802z"/>
</g>
</svg>
